<?xml version="1.0" encoding="utf-8"?>
<!-- Generator: Adobe Illustrator 19.0.0, SVG Export Plug-In . SVG Version: 6.00 Build 0)  -->
<svg version="1.1" id="Layer_1" xmlns="http://www.w3.org/2000/svg" xmlns:xlink="http://www.w3.org/1999/xlink" x="0px" y="0px"
	 viewBox="0 0 195 180" style="enable-background:new 0 0 195 180;" xml:space="preserve">
<style type="text/css">
	.st0{fill:url(#XMLID_73_);}
	.st1{fill:url(#XMLID_74_);}
</style>
<g id="XMLID_27_">
	<radialGradient id="XMLID_73_" cx="47.945" cy="91.9902" r="48.5734" gradientUnits="userSpaceOnUse">
		<stop  offset="0.2194" style="stop-color:#E6E6E5"/>
		<stop  offset="0.8827" style="stop-color:#FCFCFC"/>
	</radialGradient>
	<path id="XMLID_32_" class="st0" d="M14.5,152V32h67v16.6H34v29.9h47.4v17.1H34V152H14.5z"/>
	<radialGradient id="XMLID_74_" cx="143.781" cy="91.9902" r="51.4644" gradientUnits="userSpaceOnUse">
		<stop  offset="0.2194" style="stop-color:#E6E6E5"/>
		<stop  offset="0.8827" style="stop-color:#FCFCFC"/>
	</radialGradient>
	<path id="XMLID_29_" class="st1" d="M120.8,98.3V152h-18.3V32h27.2c8,0,14.2,0.5,18.6,1.6c4.4,1,8.2,2.8,11.3,5.2
		c3.7,2.9,6.6,6.6,8.6,11.2c2,4.6,3,9.6,3,15.1c0,9.6-2.3,17.1-7,22.6c-4.6,5.4-11.5,8.7-20.6,9.8L185,152h-22L123,98.3H120.8z
		 M122.1,83.1h3.5c10.3,0,17.2-1.2,20.6-3.6c3.4-2.4,5.1-6.7,5.1-12.8c0-6.6-1.8-11.3-5.4-14c-3.6-2.7-10.4-4.1-20.2-4.1h-3.5V83.1z
		"/>
</g>
</svg>
