<?xml version="1.0" standalone="no"?>
<!DOCTYPE svg PUBLIC "-//W3C//DTD SVG 20010904//EN"
 "http://www.w3.org/TR/2001/REC-SVG-20010904/DTD/svg10.dtd">
<svg version="1.0" xmlns="http://www.w3.org/2000/svg"
 width="256.000000pt" height="256.000000pt" viewBox="0 0 256.000000 256.000000"
 preserveAspectRatio="xMidYMid meet">
<metadata>
Created by potrace 1.15, written by Peter Selinger 2001-2017
</metadata>
<g transform="translate(0.000000,256.000000) scale(0.100000,-0.100000)"
fill="#000000" stroke="none">
<path d="M1171 2130 c-96 -14 -195 -46 -296 -98 -75 -38 -107 -63 -190 -146
-144 -145 -216 -285 -246 -477 -15 -97 -6 -264 21 -357 90 -318 360 -560 683
-612 104 -17 280 -8 377 20 286 82 514 314 592 605 28 107 30 317 4 420 -79
306 -318 548 -617 624 -93 24 -240 33 -328 21z m294 -146 c145 -38 289 -133
385 -253 297 -371 162 -913 -276 -1112 -92 -42 -175 -59 -290 -59 -204 0 -360
66 -510 215 -78 78 -98 104 -137 185 -62 129 -81 223 -74 359 6 119 23 184 74
286 82 165 233 299 407 362 124 44 293 51 421 17z"/>
<path d="M1164 1686 c-93 -43 -161 -135 -167 -223 l-2 -38 63 -3 c65 -3 64 -4
76 50 8 37 60 85 107 99 77 23 164 -31 188 -116 19 -71 -15 -127 -109 -175
-69 -35 -105 -73 -121 -128 -16 -54 -7 -62 67 -62 44 0 52 3 62 25 7 14 35 36
70 54 64 32 125 94 150 150 9 21 16 65 16 106 0 119 -51 202 -156 254 -80 40
-167 43 -244 7z"/>
<path d="M1202 968 c-13 -13 -16 -75 -6 -102 5 -12 20 -16 60 -16 50 0 55 2
65 28 7 17 8 40 2 62 -8 34 -10 35 -58 38 -30 2 -55 -2 -63 -10z"/>
</g>
</svg>
